<svg xmlns="http://www.w3.org/2000/svg" width="40" height="40" fill="none"><path d="M36.2 2.5h-35c-.5 0-1 .3-1 .8-.3.5-.2 1 .2 1.3L5 9.3v22c0 2 1.6 3.7 3.7 3.7h27.5c2.2 0 3.8-1.6 3.8-3.7v-25c0-2.2-1.6-3.8-3.8-3.8Z" fill="#FFC107"></path><path d="M18.8 10.6c-1-.8-2.3-.8-3.2 0l-.6.7-.6-.7c-.9-.8-2.3-.8-3.1 0-1 .9-1 2.3 0 3.2l3.7 3.7 3.8-3.8c.8-.8.8-2.2 0-3ZM30.6 10.6l-.6.7-.6-.7c-.9-.8-2.3-.8-3.2 0-.8.9-.8 2.3 0 3.2l3.8 3.7 3.7-3.8c1-.8 1-2.2 0-3-.8-1-2.2-1-3 0ZM22.4 27.5c5 0 7.5-4.4 7.5-6 0-.4 0-.6-.3-1-.2-.4-.6-.5-1-.5H16.2c-.3 0-.7.1-1 .5-.2.4-.2.6-.2 1 0 1.6 2.5 6 7.4 6Z" fill="#000"></path><defs><clipPath id="a"><path fill="#fff" d="M0 0h40v40H0z"></path></clipPath></defs></svg>