<svg xmlns="http://www.w3.org/2000/svg" width="40" height="40" fill="none"><path d="M36.3 2.5h-35A1.3 1.3 0 0 0 0 4c0 .2.2.5.4.6L5 9.3v22A3.8 3.8 0 0 0 8.8 35h27.5a3.7 3.7 0 0 0 3.7-3.7v-25a3.7 3.7 0 0 0-3.7-3.8Zm-20 20h12.5a1.2 1.2 0 1 1 0 2.5H16.3a1.2 1.2 0 1 1 0-2.5Zm-2-8.7a1.9 1.9 0 1 1 3.8 0 1.9 1.9 0 0 1-3.7 0Zm14.5 1.8a1.9 1.9 0 1 1 0-3.7 1.9 1.9 0 0 1 0 3.7Z" fill="#FFC107"></path><path d="M16.3 15.6a1.9 1.9 0 1 0 0-3.7 1.9 1.9 0 0 0 0 3.7ZM28.7 15.6a1.9 1.9 0 1 0 0-3.7 1.9 1.9 0 0 0 0 3.7ZM16.2 25h12.5a1.3 1.3 0 0 0 0-2.5H16.2a1.3 1.3 0 0 0 0 2.5Z" fill="#000"></path><defs><clipPath id="a"><path fill="#fff" d="M0 0h40v40H0z"></path></clipPath></defs></svg>