<svg xmlns="http://www.w3.org/2000/svg" width="40" height="40" fill="none"><path d="M36.2 2.5h-35a1.3 1.3 0 0 0-.8 2.1L5 9.3v22A3.7 3.7 0 0 0 8.7 35h27.5a3.8 3.8 0 0 0 3.8-3.8v-25a3.8 3.8 0 0 0-3.8-3.7Z" fill="#FFC107"></path><path d="M22.5 22.5a5 5 0 0 0-5 4A1.3 1.3 0 1 1 15 26a7.6 7.6 0 0 1 7.5-6 7.6 7.6 0 0 1 7.5 6 1.3 1.3 0 1 1-2.5.5c0-.2-.8-4-5-4ZM16.3 15.6a1.9 1.9 0 1 0 0-3.7 1.9 1.9 0 0 0 0 3.7ZM28.8 15.6a1.9 1.9 0 1 0 0-3.7 1.9 1.9 0 0 0 0 3.7Z" fill="#000"></path><defs><clipPath id="a"><path fill="#fff" d="M0 0h40v40H0z"></path></clipPath></defs></svg>