<svg xmlns="http://www.w3.org/2000/svg" width="40" height="40" fill="none"><path d="M36.3 2.5h-35a1.2 1.2 0 0 0-1 2.1L5 9.3v22A3.8 3.8 0 0 0 8.8 35h27.5a3.7 3.7 0 0 0 3.7-3.7v-25a3.8 3.8 0 0 0-3.7-3.8Z" fill="#FFC107"></path><path d="M22.5 22.5a5 5 0 0 1 5 4A1.3 1.3 0 1 0 30 26a7.7 7.7 0 0 0-15 0 1.3 1.3 0 1 0 2.5.5c0-.2.9-4 5-4ZM16.3 18.1a1.9 1.9 0 1 0 0-3.7 1.9 1.9 0 0 0 0 3.7ZM28.7 18.1a1.9 1.9 0 1 0 0-3.7 1.9 1.9 0 0 0 0 3.7ZM32.4 8.2a1.3 1.3 0 0 0-1.7-.6l-5 2.5a1.3 1.3 0 1 0 1.1 2.3l5-2.5a1.3 1.3 0 0 0 .6-1.7ZM18.8 12.5a1.3 1.3 0 0 0 .5-2.4l-5-2.5a1.3 1.3 0 1 0-1.1 2.3l5 2.5.6.1Z" fill="#000"></path><defs><clipPath id="a"><path fill="#fff" d="M0 0h40v40H0z"></path></clipPath></defs></svg>