<svg xmlns="http://www.w3.org/2000/svg" width="40" height="40" fill="none"><path d="M36.2 2.5h-35c-.5 0-1 .3-1 .8-.3.5-.2 1 .2 1.3L5 9.3v22c0 2 1.6 3.7 3.7 3.7h27.5c2.2 0 3.8-1.6 3.8-3.7v-25c0-2.2-1.6-3.8-3.8-3.8Z" fill="#FFC107"></path><path d="M16 20c.6-.1 1.4.3 1.5 1a5 5 0 0 0 5 4 5 5 0 0 0 5-4c.1-.7.8-1.1 1.5-1 .8.1 1.1.8 1 1.5a7.6 7.6 0 0 1-9.1 5.9c-3-.6-5.3-3-5.9-5.9-.1-.6.3-1.4 1-1.5ZM16.3 15.6a1.9 1.9 0 1 0 0-3.7 1.9 1.9 0 0 0 0 3.7ZM28.7 15.6a1.9 1.9 0 1 0 0-3.7 1.9 1.9 0 0 0 0 3.7Z" fill="#000"></path><defs><clipPath id="a"><path fill="#fff" d="M0 0h40v40H0z"></path></clipPath></defs></svg>